HIERARCHY
ROOT RootJoint
{
    OFFSET   0.000000   0.000000   0.000000
    CHANNELS 6 Xposition Yposition Zposition Xrotation Yrotation Zrotation
    JOINT pelvis_lowerback
    {
        OFFSET   0.000000   0.093605   0.000000
        CHANNELS 3 Xrotation Yrotation Zrotation
        JOINT lowerback_torso
        {
            OFFSET   0.000000   0.100000   0.000000
            CHANNELS 3 Xrotation Yrotation Zrotation
            JOINT torso_head
            {
                OFFSET   0.000000   0.282350   0.000000
                CHANNELS 3 Xrotation Yrotation Zrotation
                End Site
                {
                    OFFSET   0.000000   0.192650   0.000000
                }
            }
            JOINT rTorso_Clavicle
            {
                OFFSET  -0.001000   0.157500   0.000000
                CHANNELS 3 Xrotation Yrotation Zrotation
                JOINT rShoulder
                {
                    OFFSET  -0.117647   0.000000   0.000000
                    CHANNELS 3 Xrotation Yrotation Zrotation
                    JOINT rElbow
                    {
                        OFFSET  -0.245000   0.000000   0.000000
                        CHANNELS 3 Xrotation Yrotation Zrotation
                        JOINT rWrist
                        {
                            OFFSET  -0.240000   0.000000   0.000000
                            CHANNELS 3 Xrotation Yrotation Zrotation
                            End Site
                            {
                                OFFSET  -0.116353  -0.002500   0.000000
                            }
                        }
                    }
                }
            }
            JOINT lTorso_Clavicle
            {
                OFFSET   0.001000   0.157500   0.000000
                CHANNELS 3 Xrotation Yrotation Zrotation
                JOINT lShoulder
                {
                    OFFSET   0.117647   0.000000   0.000000
                    CHANNELS 3 Xrotation Yrotation Zrotation
                    JOINT lElbow
                    {
                        OFFSET   0.245000   0.000000   0.000000
                        CHANNELS 3 Xrotation Yrotation Zrotation
                        JOINT lWrist
                        {
                            OFFSET   0.240000   0.000000   0.000000
                            CHANNELS 3 Xrotation Yrotation Zrotation
                            End Site
                            {
                                OFFSET   0.116353  -0.002500   0.000000
                            }
                        }
                    }
                }
            }
        }
    }
    JOINT rHip
    {
        OFFSET  -0.100000  -0.051395   0.000000
        CHANNELS 3 Xrotation Yrotation Zrotation
        JOINT rKnee
        {
            OFFSET   0.000000  -0.410000   0.000000
            CHANNELS 3 Xrotation Yrotation Zrotation
            JOINT rAnkle
            {
                OFFSET   0.000000  -0.390000   0.000000
                CHANNELS 3 Xrotation Yrotation Zrotation
                JOINT rToeJoint
                {
                    OFFSET   0.000000  -0.050000   0.130000
                    CHANNELS 3 Xrotation Yrotation Zrotation
                    End Site
                    {
                        OFFSET  -0.010000   0.002000   0.060000
                    }
                }
            }
        }
    }
    JOINT lHip
    {
        OFFSET   0.100000  -0.051395   0.000000
        CHANNELS 3 Xrotation Yrotation Zrotation
        JOINT lKnee
        {
            OFFSET   0.000000  -0.410000   0.000000
            CHANNELS 3 Xrotation Yrotation Zrotation
            JOINT lAnkle
            {
                OFFSET   0.000000  -0.390000   0.000000
                CHANNELS 3 Xrotation Yrotation Zrotation
                JOINT lToeJoint
                {
                    OFFSET   0.000000  -0.050000   0.130000
                    CHANNELS 3 Xrotation Yrotation Zrotation
                    End Site
                    {
                        OFFSET   0.010000   0.002000   0.060000
                    }
                }
            }
        }
    }
}
MOTION
Frames: 11
Frame Time:   0.008333
 -2.376719   0.925631   3.975860   0.000000   0.000000   0.000000   0.000000   0.000000   0.000000   0.000000   0.000000   0.000000   0.000000   0.000000   0.000000   0.000000   0.000000   0.000000   0.000000   0.000000   0.000000   0.000000   0.000000   0.000000   0.000000   0.000000   0.000000   0.000000   0.000000   0.000000   0.000000   0.000000   0.000000   0.000000   0.000000   0.000000   0.000000   0.000000   0.000000   0.000000   0.000000   0.000000   0.000000   0.000000   0.000000   0.000000   0.000000   0.000000   0.000000   0.000000   0.000000   0.000000   0.000000   0.000000   0.000000   0.000000   0.000000   0.000000   0.000000   0.000000   0.000000   0.000000   0.000000
 -2.376529   0.926119   3.976123  -0.459976   0.060711   0.021753   0.448909  -0.004961   0.013314   0.056513  -0.167601  -0.003884  -0.148789   0.047438   0.005065   0.235532  -0.283334   0.261768   1.354966   0.541463   1.945983   0.024243   1.224653  -0.017749   0.488677  -0.846279  -2.326847   0.265719   0.263479  -0.493962   1.624828  -0.240625  -1.822963   0.025303  -1.253303   0.021454   0.536986   0.701525   2.464670   0.425249  -0.031832  -0.173372   0.289441   0.000384   0.000072  -0.501040  -0.239561  -0.031072  -0.102464  -0.000163   0.000188   0.372906   0.016686   0.088225   0.618833  -0.000589   0.000422  -0.880993   0.314688   0.104171   0.219430  -0.000407   0.000751
 -2.376306   0.926963   3.976407  -0.957127   0.110207   0.049624   0.850480  -0.018842   0.032734   0.134099  -0.340792  -0.012075  -0.287848   0.090131   0.017258   0.467159  -0.411709   1.177187   2.666336   1.255129   4.411527   0.056953   2.442872  -0.030865   1.020237  -1.247999  -3.968842   0.532327   0.372690  -1.669692   3.212553  -0.656822  -4.202953   0.059435  -2.491185   0.037575   1.125783   0.995720   4.234738   0.853062  -0.068006  -0.466944   0.618783   0.001075   0.000089  -0.971232  -0.467049  -0.063758  -0.231584  -0.000468   0.000388   0.805304   0.045118   0.280522   1.304211  -0.001768   0.000837  -1.706235   0.613187   0.207765   0.375186  -0.000758   0.001114
 -2.376082   0.927778   3.976704  -1.436020   0.147838   0.079347   1.202673  -0.040380   0.051631   0.189112  -0.510977  -0.023852  -0.427796   0.129514   0.032337   0.680731  -0.428196   2.496048   3.918345   2.100958   7.212073   0.089688   3.609460  -0.039573   1.539863  -1.411151  -4.860382   0.779312   0.362904  -3.251218   4.749162  -1.226508  -6.939052   0.093639  -3.676617   0.048823   1.700583   1.059464   5.222375   1.241462  -0.107896  -0.851061   0.932580   0.001835   0.000046  -1.410424  -0.680569  -0.096996  -0.356572  -0.000798   0.000539   1.253470   0.077970   0.563854   1.972382  -0.003207   0.001158  -2.476171   0.891984   0.309352   0.513326  -0.001097   0.001316
 -2.375867   0.928286   3.977026  -1.885631   0.174688   0.109055   1.514475  -0.068982   0.067395   0.220633  -0.678147  -0.038867  -0.567997   0.166134   0.048138   0.876003  -0.375578   4.045480   5.107473   3.058012  10.233065   0.118408   4.716472  -0.045009   2.045069  -1.431849  -5.199546   1.003569   0.275834  -5.055933   6.232405  -1.933193  -9.905782   0.123727  -4.803505   0.056508   2.259642   0.974443   5.636160   1.586112  -0.150531  -1.304133   1.220749   0.002537  -0.000033  -1.821257  -0.880743  -0.130380  -0.477386  -0.001121   0.000651   1.704354   0.114235   0.922218   2.608593  -0.004682   0.001402  -3.195405   1.152123   0.408514   0.634829  -0.001385   0.001399
 -2.375663   0.928282   3.977385  -2.304143   0.190389   0.137740   1.792998  -0.103960   0.079326   0.233873  -0.842461  -0.056758  -0.705468   0.200250   0.063613   1.053367  -0.283473   5.709470   6.230364   4.109423  13.396676   0.141387   5.760906  -0.048062   2.533659  -1.365309  -5.168156   1.203677   0.141438  -6.964051   7.658821  -2.761728 -13.018725   0.147915  -5.869378   0.061608   2.801175   0.791725   5.667521   1.889433  -0.194775  -1.808972   1.483306   0.003122  -0.000132  -2.205615  -1.068238  -0.163580  -0.593210  -0.001413   0.000728   2.152465   0.153459   1.340081   3.211159  -0.006052   0.001579  -3.867413   1.394734   0.504904   0.741948  -0.001608   0.001402
 -2.375470   0.927613   3.977792  -2.692056   0.193537   0.164783   2.043297  -0.144537   0.087506   0.233483  -1.003874  -0.077137  -0.837940   0.232064   0.078289   1.213859  -0.171369   7.410928   7.283992   5.241585  16.650877   0.158264   6.742342  -0.049389   3.003378  -1.247563  -4.900356   1.379532  -0.019941  -8.897348   9.024592  -3.699064 -16.221504   0.165826  -6.873930   0.064823   3.322843   0.546585   5.456587   2.155066  -0.239613  -2.351360   1.722219   0.003570  -0.000240  -2.565135  -1.243726  -0.196331  -0.703210  -0.001656   0.000779   2.594782   0.195248   1.803313   3.781039  -0.007241   0.001691  -4.495267   1.620894   0.598247   0.836991  -0.001764   0.001350
 -2.375276   0.925621   3.977738  -2.750669   0.129844   0.162138   2.093401  -0.176732   0.181883   0.131138  -1.134097  -0.175353  -1.136798   0.148754   0.072358   1.421228  -0.003247   8.429149   8.573154   6.508020  19.999710   0.176615   7.935223  -0.057091   3.436952  -1.091754  -3.713023   1.675926  -0.184558 -10.142339  10.300153  -4.683144 -19.425590   0.182909  -8.065928   0.071771   3.818693   0.119863   4.298405   1.959604  -0.513437  -2.824992   2.043881   0.004148  -0.001233  -2.548991  -1.496445  -0.026025  -0.694816  -0.001302   0.000580   2.757215   0.366384   2.247404   3.821568  -0.005946   0.001403  -4.689078   1.864972   0.650233   1.007491  -0.002138   0.001608
 -2.375089   0.922493   3.977510  -2.766345   0.072367   0.154428   2.169523  -0.214111   0.278162   0.015649  -1.255022  -0.266526  -1.432594   0.065055   0.060338   1.595879   0.200458   9.244575   9.702561   7.787647  23.026042   0.184102   9.069392  -0.061796   3.874263  -0.795815  -2.527975   1.933064  -0.374827 -11.148222  11.435728  -5.682369 -22.300084   0.188734  -9.194474   0.075745   4.304642  -0.428775   3.187941   1.723278  -0.782997  -3.253920   2.325438   0.004341  -0.001882  -2.528556  -1.735886   0.132654  -0.652532  -0.000936   0.000253   2.847871   0.529110   2.651664   3.763003  -0.004558   0.001051  -4.872013   2.093142   0.699817   1.179460  -0.002364   0.001795
 -2.375021   0.921294   3.977434  -2.842958   0.011586  -0.252026   2.295060  -0.239257   0.687012  -0.058441  -1.359937  -0.210123  -1.705327  -0.013035   0.057930   1.743579   0.419814  10.063860  10.689142   9.046691  25.809454   0.185740  10.127261  -0.063601   4.294419  -0.500783  -1.561575   2.156252  -0.578983 -12.200516  12.439406  -6.689190 -24.987525   0.189082 -10.251363   0.077056   4.767091  -0.967851   2.272754   1.448214  -1.140412  -2.903233   2.861993   0.003586  -0.003651  -1.990980  -2.051465   0.494602  -0.570950  -0.000950  -0.000347   2.978500   0.683095   3.376498   3.685000  -0.003432   0.000773  -5.036859   2.308821   0.748928   1.392556  -0.002553   0.001984
 -2.374458   0.921150   3.977636  -2.926037  -0.009314  -0.164205   2.397927  -0.282440   0.675300  -0.125635  -1.470784  -0.295519  -1.953682  -0.087122   0.050719   1.887031   0.620484  10.860865  11.552529  10.276674  28.441300   0.182709  11.122582  -0.063374   4.692689  -0.179172  -0.601234   2.357226  -0.771686 -13.107026  13.335625  -7.667348 -27.441959   0.184313 -11.239230   0.075905   5.204297  -1.505620   1.425295   1.319229  -1.398461  -3.078715   3.245513   0.003070  -0.003920  -1.875241  -2.265827   0.659793  -0.473080  -0.000822  -0.000710   3.013166   0.892728   3.275336   3.784416  -0.002722   0.000793  -4.941993   2.565954   0.670101   1.577687  -0.001887   0.002320
